<svg id="Capa_1" enable-background="new 0 0 497 497" height="512" viewBox="0 0 497 497" width="512" xmlns="http://www.w3.org/2000/svg"><g><g><g><path d="m378.036 398.503c-30.536 36.037-76.128 58.911-127.062 58.911-91.94 0-166.473-74.532-166.473-166.473 0-91.94 74.532-166.473 166.473-166.473s166.473 74.532 166.473 166.473c0 30.212-8.048 58.544-22.117 82.969" fill="#f7f7f7"/></g></g><g><g><path d="m250.974 124.469c-5.057 0-10.058.239-15 .68 84.91 7.585 151.473 78.909 151.473 165.793 0 30.212-8.048 58.544-22.117 82.969l-17.293 24.592c-27.501 32.454-67.215 54.223-112.042 58.233 4.936.44 9.93.678 14.98.678 50.934 0 96.526-22.875 127.062-58.911l17.293-24.592c14.069-24.426 22.117-52.758 22.117-82.969-.001-91.941-74.533-166.473-166.473-166.473z" fill="#e8e8e8"/></g></g><g><g><path d="m43.378 332.212c-3.233-15.094-4.842-30.79-4.633-46.898 1.488-115.122 94.625-207.001 209.756-207.001 115.854 0 209.773 93.919 209.773 209.773 0 15.145-1.606 29.915-4.656 44.149-2.582 12.051 6.607 23.41 18.932 23.41 9.101 0 17.017-6.326 18.926-15.224 3.785-17.648 5.697-35.991 5.513-54.811-1.329-136.107-113.01-246.363-249.123-246.023-136.951.342-247.866 111.468-247.866 248.499 0 17.953 1.907 35.459 5.525 52.331 1.908 8.9 9.824 15.228 18.927 15.228 12.334 0 21.509-11.372 18.926-23.433z" fill="#92e0c4"/></g></g><g><g><path d="m250.974 39.619v38.725c114.713 1.328 207.3 94.715 207.3 209.742 0 15.145-1.606 29.915-4.656 44.149-2.582 12.052 6.607 23.41 18.932 23.41 9.101 0 17.017-6.326 18.926-15.224 3.785-17.648 5.697-35.99 5.513-54.811-1.319-135.068-111.317-244.658-246.015-245.991z" fill="#dd552d"/></g></g><g><g><path d="m250.974 39.619v2.122c120.661 15.888 214.795 118.982 216.014 243.869.184 18.821-1.729 37.163-5.513 54.811-.657 3.063-2.038 5.809-3.921 8.109 3.516 4.305 8.867 7.115 14.996 7.115 9.101 0 17.017-6.326 18.926-15.224 3.785-17.648 5.697-35.99 5.513-54.811-1.319-135.068-111.317-244.658-246.015-245.991z" fill="#cf462a"/></g></g><path d="m255.152 227.618c-1.076-2.733-3.714-4.53-6.652-4.53s-5.576 1.797-6.652 4.53c-4.521 11.486-27.074 69.555-27.074 84.817 0 18.596 15.129 33.725 33.725 33.725s33.725-15.129 33.725-33.725c.001-15.261-22.552-73.331-27.072-84.817z" fill="#b1abb4"/><g fill="#d9d9d9"><path d="m128.079 178.653 10.76 10.76c1.464 1.465 3.384 2.197 5.303 2.197s3.839-.732 5.303-2.197c2.929-2.929 2.929-7.677 0-10.606l-10.76-10.76c-3.692 3.375-7.231 6.914-10.606 10.606z"/><path d="m186.551 154.077c1.192 2.897 3.989 4.648 6.939 4.648.951 0 1.917-.182 2.851-.566 3.831-1.576 5.658-5.96 4.082-9.79l-5.806-14.109c-4.726 1.7-9.352 3.611-13.869 5.716z"/><path d="m108.642 239.717c.944.394 1.921.579 2.884.579 2.936 0 5.725-1.736 6.925-4.615 1.594-3.823-.213-8.215-4.036-9.809l-14.075-5.869c-2.126 4.507-4.064 9.121-5.787 13.839z"/><path d="m250.974 147.358c4.142 0 7.5-3.358 7.5-7.5v-15.214c-2.487-.11-4.986-.176-7.5-.176s-5.013.066-7.5.176v15.214c0 4.143 3.357 7.5 7.5 7.5z"/><path d="m407.377 348.032-14.072-5.867c-3.821-1.594-8.214.212-9.809 4.036-1.594 3.823.213 8.214 4.036 9.809l14.065 5.865c2.127-4.508 4.057-9.124 5.78-13.843z"/><path d="m114.109 355.364c3.83-1.576 5.658-5.959 4.082-9.79-1.577-3.831-5.959-5.657-9.79-4.082l-14.109 5.806c1.7 4.726 3.611 9.352 5.716 13.869z"/><path d="m107.391 290.941c0-4.142-3.358-7.5-7.5-7.5h-15.214c-.11 2.487-.176 4.986-.176 7.5s.066 5.013.176 7.5h15.214c4.142 0 7.5-3.358 7.5-7.5z"/><path d="m306.234 158.418c.943.394 1.921.58 2.883.58 2.936 0 5.725-1.736 6.925-4.616l5.869-14.075c-4.507-2.126-9.121-4.064-13.839-5.787l-5.875 14.089c-1.594 3.824.214 8.215 4.037 9.809z"/><path d="m138.686 413.836 10.76-10.76c2.929-2.929 2.929-7.678 0-10.607-2.929-2.93-7.678-2.929-10.606 0l-10.76 10.76c3.374 3.692 6.914 7.232 10.606 10.607z"/><path d="m199.75 433.273c1.594-3.823-.213-8.215-4.036-9.809-3.824-1.594-8.215.212-9.809 4.036l-5.869 14.075c4.507 2.126 9.121 4.065 13.839 5.787z"/><path d="m363.262 168.046-10.76 10.76c-2.929 2.929-2.929 7.678 0 10.606 1.464 1.465 3.384 2.197 5.303 2.197s3.839-.732 5.303-2.197l10.76-10.76c-3.375-3.691-6.914-7.231-10.606-10.606z"/><path d="m417.27 283.441h-15.214c-4.142 0-7.5 3.358-7.5 7.5s3.358 7.5 7.5 7.5h15.204c.11-2.488.187-4.985.187-7.5-.001-2.514-.066-5.013-.177-7.5z"/><path d="m383.756 236.308c1.192 2.897 3.989 4.648 6.939 4.648.951 0 1.918-.182 2.851-.566l14.11-5.805c-1.7-4.727-3.611-9.352-5.716-13.869l-14.102 5.802c-3.831 1.576-5.658 5.96-4.082 9.79z"/><path d="m258.474 457.232v-15.208c0-4.142-3.358-7.5-7.5-7.5s-7.5 3.358-7.5 7.5v15.214c2.487.11 4.986.176 7.5.176s5.012-.072 7.5-.182z"/><path d="m315.397 427.805c-1.577-3.831-5.96-5.656-9.79-4.082-3.83 1.576-5.658 5.96-4.082 9.79l5.803 14.104c4.726-1.7 9.355-3.604 13.872-5.709z"/><path d="m373.862 403.223-10.753-10.754c-2.929-2.93-7.678-2.929-10.606 0-2.929 2.929-2.929 7.677 0 10.607l10.757 10.758c3.691-3.376 7.226-6.919 10.602-10.611z"/></g></g></svg>